<svg width="248" height="45" viewBox="0 0 248 45" fill="none" xmlns="http://www.w3.org/2000/svg">
<path fill-rule="evenodd" clip-rule="evenodd" d="M9.29568e-05 7.42877H0.753154C1.41704 7.42828 2.07453 7.55815 2.68803 7.81097C3.30152 8.06378 3.85901 8.43458 4.32863 8.90218C4.79824 9.36977 5.17078 9.925 5.42496 10.5361C5.67913 11.1472 5.80996 11.8023 5.80996 12.4638V38.153H5.0569C4.39269 38.1535 3.7349 38.0235 3.12116 37.7705C2.50741 37.5174 1.94976 37.1463 1.48009 36.6783C1.01043 36.2103 0.637965 35.6547 0.384012 35.0431C0.130059 34.4315 -0.000402167 33.7761 9.29568e-05 33.1143V7.42877Z" fill="white"/>
<path fill-rule="evenodd" clip-rule="evenodd" d="M26.0041 23.697L17.8673 15.5892C17.1306 14.7948 16.7171 13.7555 16.7075 12.674L16.6812 10.6742V6.10352e-05H15.9281C14.588 6.10352e-05 13.3027 0.530537 12.3551 1.47479C11.4075 2.41905 10.8751 3.69973 10.8751 5.0351V13.2217V14.1635C10.9008 14.9783 11.0704 15.7822 11.3759 16.5384C11.7038 17.3471 12.1859 18.0848 12.7954 18.7108L19.4788 25.5617C20.3474 26.3244 20.9971 27.3032 21.3615 28.3982C21.6012 29.2686 21.7514 30.1612 21.8095 31.062C21.8773 32.075 21.8095 32.5365 21.93 32.5628C22.3442 32.6641 23.7825 28.5745 23.7825 28.5745L22.6341 27.0737L26.0041 23.697Z" fill="white"/>
<path d="M16.2541 29.5197C15.9058 28.7218 15.426 27.9875 14.8346 27.3474C14.4784 26.925 14.0921 26.5288 13.6786 26.1618L7.34163 19.7235C6.4251 18.5018 5.89189 17.0371 5.80915 15.5139V14.6322V13.1315V12.5124C5.80915 11.177 5.27678 9.89634 4.32915 8.95209C3.38152 8.00783 2.09626 7.47736 0.756112 7.47736H0.00305176V16.3168V18.0239C0.0474102 19.7255 0.731409 21.3484 1.91959 22.5712L8.59547 29.4222C8.62936 29.456 8.76868 29.5723 8.94941 29.7373C9.23483 29.9956 9.50512 30.2699 9.75895 30.559C10.1504 30.9825 10.4594 31.4749 10.6702 32.011C10.8396 32.4499 10.9202 32.9179 10.9074 33.3879L10.9337 35.3839V45.0001H11.6868C13.0269 45.0001 14.3122 44.4696 15.2598 43.5253C16.2075 42.5811 16.7398 41.3004 16.7398 39.965V32.8364C16.7398 32.5213 16.7398 32.2061 16.7398 31.8947C16.7209 31.0806 16.5564 30.2763 16.2541 29.5197Z" fill="white"/>
<path fill-rule="evenodd" clip-rule="evenodd" d="M21.7819 7.42877H22.5349C23.1988 7.42828 23.8563 7.55815 24.4698 7.81097C25.0833 8.06378 25.6408 8.43458 26.1104 8.90218C26.58 9.36977 26.9526 9.925 27.2067 10.5361C27.4609 11.1472 27.5917 11.8023 27.5917 12.4638V38.153H26.8387C26.1748 38.153 25.5174 38.0227 24.9041 37.7694C24.2908 37.5162 23.7336 37.1449 23.2643 36.677C22.795 36.209 22.4229 35.6535 22.1692 35.0422C21.9155 34.4309 21.7851 33.7758 21.7856 33.1143V7.42877H21.7819Z" fill="white"/>
<path fill-rule="evenodd" clip-rule="evenodd" d="M245.41 16.4867C244.219 15.5699 242.672 15.5699 241.045 15.5699H218.631C216.99 15.5699 215.444 15.5699 214.265 16.4867C212.968 17.4845 212.394 19.3991 212.394 22.5049C212.394 25.6107 213.018 27.4941 214.265 28.5231C215.456 29.4399 217.003 29.4399 218.631 29.4399H241.032C242.672 29.4399 244.219 29.4399 245.398 28.5231C246.695 27.5191 247.269 25.6107 247.269 22.5049C247.269 19.3991 246.707 17.4845 245.41 16.4867ZM244.643 27.5253C243.789 28.1864 242.51 28.1864 241.032 28.1864H218.631C217.152 28.1864 215.874 28.1864 215.02 27.5253C214.072 26.7956 213.61 25.1492 213.61 22.5361C213.61 19.923 214.072 18.2454 215.02 17.5095C215.874 16.8546 217.152 16.8546 218.631 16.8546H241.032C242.51 16.8546 243.789 16.8546 244.643 17.5095C245.497 18.1643 246.052 19.8856 246.052 22.5361C246.052 25.1866 245.591 26.7956 244.643 27.5253Z" fill="white"/>
<path d="M53.8806 16.6302V28.8101H51.386V23.5028H44.2264V28.8101H41.7007V16.6302H44.2264V22.1994H51.361V16.6302H53.8806Z" fill="white"/>
<path d="M62.9049 16.2809C63.8711 16.2679 64.8332 16.4089 65.755 16.6988C66.5633 16.9582 67.3087 17.3829 67.944 17.9461C68.5622 18.5056 69.0479 19.1959 69.3659 19.9667C70.0392 21.7492 70.0392 23.716 69.3659 25.4985C69.0515 26.2713 68.5652 26.9623 67.944 27.5191C67.3119 28.0867 66.5655 28.512 65.755 28.7664C64.8332 29.0563 63.8711 29.1973 62.9049 29.1843C61.9387 29.1969 60.9767 29.0558 60.0548 28.7664C59.2399 28.5135 58.4891 28.0881 57.8533 27.5191C57.2339 26.9633 56.7515 26.2717 56.4439 25.4985C55.7784 23.7146 55.7784 21.7506 56.4439 19.9667C56.7547 19.1952 57.2366 18.5043 57.8533 17.9461C58.4922 17.3814 59.2421 16.9566 60.0548 16.6988C60.9767 16.4094 61.9387 16.2683 62.9049 16.2809ZM62.9049 17.5282C62.3369 17.5233 61.7734 17.6292 61.246 17.8401C60.7275 18.0465 60.2657 18.3736 59.8989 18.7942C59.4889 19.271 59.1773 19.8242 58.9821 20.422C58.5332 21.9382 58.5332 23.552 58.9821 25.0682C59.1773 25.6659 59.4889 26.2191 59.8989 26.6959C60.2671 27.1165 60.7283 27.4454 61.246 27.6563C62.315 28.0722 63.501 28.0722 64.57 27.6563C65.0877 27.4454 65.5489 27.1165 65.9171 26.6959C66.3271 26.2191 66.6387 25.6659 66.8339 25.0682C67.2828 23.552 67.2828 21.9382 66.8339 20.422C66.6387 19.8242 66.3271 19.271 65.9171 18.7942C65.5581 18.3746 65.1051 18.0455 64.595 17.8338C64.0591 17.6125 63.4846 17.5002 62.9049 17.5033V17.5282Z" fill="white"/>
<path d="M82.8617 17.9336H78.1593V28.8101H75.6647V17.9336H70.9375V16.6302H82.8617V17.9336Z" fill="white"/>
<path d="M86.7719 17.9336V21.9375H93.1269V23.2409H86.7719V27.5067H94.8794V28.8101H84.2773V16.6302H94.8794V17.9336H86.7719Z" fill="white"/>
<path d="M106.617 27.5067V28.8101H96.582V16.6302H99.0766V27.5067H106.617Z" fill="white"/>
<path d="M119.495 25.5921C119.498 26.078 119.389 26.5581 119.177 26.9953C118.946 27.4564 118.595 27.8465 118.16 28.1241C117.6 28.482 116.982 28.7395 116.333 28.8849C115.428 29.0834 114.503 29.1754 113.576 29.1593C112.973 29.1614 112.37 29.1155 111.774 29.0221C111.207 28.934 110.648 28.8005 110.103 28.623C109.597 28.4629 109.108 28.2541 108.643 27.9994C108.224 27.7721 107.834 27.4934 107.483 27.1699L108.356 26.1284C109.036 26.7072 109.822 27.1478 110.67 27.4256C111.609 27.7291 112.59 27.8786 113.576 27.8684C114.437 27.9386 115.3 27.7703 116.071 27.3819C116.3 27.242 116.487 27.0445 116.615 26.8092C116.743 26.5738 116.807 26.3089 116.801 26.0411C116.8 25.823 116.747 25.6082 116.648 25.4142C116.548 25.2202 116.404 25.0525 116.227 24.9247C115.629 24.525 114.97 24.2259 114.275 24.0392L110.97 22.9977C110.046 22.751 109.193 22.2943 108.475 21.6631C108.2 21.396 107.983 21.0745 107.839 20.7191C107.695 20.3636 107.627 19.9821 107.639 19.5988C107.639 19.1644 107.743 18.7364 107.945 18.3515C108.168 17.9252 108.494 17.5609 108.893 17.2913C109.393 16.9488 109.951 16.6995 110.539 16.5554C111.327 16.3643 112.136 16.2742 112.947 16.2872C113.515 16.2892 114.082 16.3351 114.643 16.4244C115.193 16.516 115.736 16.6516 116.264 16.8298C116.763 16.9934 117.245 17.2021 117.705 17.4534C118.123 17.6807 118.512 17.9571 118.865 18.2766L117.992 19.3244C117.338 18.7552 116.583 18.3151 115.765 18.0272C114.859 17.7144 113.905 17.5624 112.947 17.5781C112.263 17.5339 111.582 17.6923 110.988 18.0334C110.798 18.1516 110.642 18.3159 110.533 18.5112C110.423 18.7064 110.366 18.9261 110.365 19.1497C110.361 19.3642 110.403 19.5769 110.489 19.7734C110.585 19.972 110.726 20.1451 110.901 20.2786C111.13 20.4599 111.384 20.6069 111.656 20.7151C111.967 20.8523 112.36 20.9895 112.822 21.1454L116.108 22.1869C117.025 22.4447 117.875 22.8955 118.603 23.5091C118.895 23.7699 119.126 24.0916 119.28 24.4515C119.434 24.8114 119.508 25.2008 119.495 25.5921Z" fill="white"/>
<path d="M128.712 23.9392H120.711V22.3739H128.712V23.9392Z" fill="white"/>
<path d="M133.153 17.9336V21.9375H139.508V23.2409H133.153V27.5067H141.26V28.8101H130.658V16.6302H141.26V17.9336H133.153Z" fill="white"/>
<path d="M149.898 22.5674L155.081 28.8039H152.124L148.414 24.351L144.728 28.8039H141.766L146.936 22.5674L142.028 16.6302H144.99L148.414 20.79L151.863 16.6302H154.819L149.898 22.5674Z" fill="white"/>
<path d="M162.57 16.6301C163.361 16.619 164.15 16.7155 164.915 16.917C165.548 17.0791 166.143 17.363 166.668 17.7526C167.135 18.1057 167.512 18.5654 167.765 19.0935C168.03 19.657 168.162 20.2735 168.152 20.8958C168.163 21.5163 168.03 22.1308 167.765 22.692C167.513 23.2211 167.137 23.6812 166.668 24.0328C166.145 24.425 165.549 24.7091 164.915 24.8685C164.15 25.0699 163.361 25.1664 162.57 25.1554H158.828V28.81H156.303V16.6301H162.57ZM158.828 17.9335V23.8519H162.57C162.97 23.8703 163.37 23.8074 163.745 23.667C164.12 23.5265 164.463 23.3115 164.752 23.0349C165.042 22.7583 165.272 22.4259 165.43 22.0577C165.587 21.6895 165.669 21.2932 165.669 20.8927C165.669 20.4923 165.587 20.096 165.43 19.7278C165.272 19.3596 165.042 19.0271 164.752 18.7505C164.463 18.4739 164.12 18.2589 163.745 18.1185C163.37 17.9781 162.97 17.9151 162.57 17.9335H158.828Z" fill="white"/>
<path d="M172.574 17.9336V21.9375H178.904V23.2409H172.574V27.5067H180.682V28.8101H170.08V16.6302H180.682V17.9336H172.574Z" fill="white"/>
<path d="M188.67 16.6302C189.459 16.6198 190.246 16.7163 191.009 16.9171C191.64 17.079 192.233 17.3629 192.755 17.7528C193.228 18.1001 193.611 18.5556 193.872 19.0812C194.136 19.6447 194.268 20.2612 194.258 20.8835C194.284 21.72 194.039 22.5424 193.56 23.2285C193.052 23.9043 192.356 24.4143 191.558 24.694L194.433 28.7977H191.558L189.001 25.1431H184.947V28.7977H182.453V16.6302H188.67ZM184.929 17.9337V23.8521H188.67C189.445 23.9013 190.208 23.6411 190.791 23.1287C191.272 22.4827 191.532 21.6985 191.532 20.8929C191.532 20.0872 191.272 19.3031 190.791 18.6571C190.208 18.1447 189.445 17.8845 188.67 17.9337H184.929Z" fill="white"/>
<path d="M207.205 17.9336H202.503V28.8101H200.008V17.9336H195.306V16.6302H207.23L207.205 17.9336Z" fill="white"/>
<path d="M223.108 23.4965C223.111 23.656 223.077 23.8139 223.008 23.958C222.932 24.1107 222.815 24.2399 222.672 24.3322C222.481 24.4545 222.27 24.5411 222.048 24.5879C221.749 24.6503 221.443 24.6796 221.137 24.6752C220.929 24.6781 220.72 24.6635 220.514 24.6316C220.328 24.6018 220.144 24.558 219.965 24.5006C219.798 24.4425 219.635 24.3716 219.479 24.2886C219.341 24.2125 219.214 24.1204 219.098 24.0142L219.385 23.6712C219.611 23.8624 219.871 24.0085 220.152 24.1015C220.463 24.1991 220.787 24.2475 221.112 24.2449C221.397 24.2665 221.681 24.2104 221.936 24.0828C222.012 24.0368 222.074 23.9717 222.117 23.894C222.159 23.8162 222.181 23.7286 222.179 23.64C222.178 23.5678 222.16 23.4969 222.126 23.433C222.092 23.3691 222.044 23.314 221.986 23.272C221.795 23.1404 221.585 23.0413 221.362 22.9789L220.264 22.6359C219.963 22.5499 219.684 22.3988 219.447 22.1931C219.357 22.105 219.286 21.9991 219.239 21.882C219.191 21.765 219.169 21.6395 219.173 21.5133C219.175 21.3704 219.209 21.2297 219.273 21.1017C219.349 20.9612 219.458 20.8414 219.591 20.7525C219.753 20.635 219.938 20.5522 220.133 20.5092C220.392 20.4445 220.659 20.4152 220.925 20.4219C221.115 20.4207 221.305 20.4353 221.493 20.4656C221.673 20.496 221.85 20.5397 222.023 20.5965C222.189 20.652 222.35 20.723 222.503 20.8086C222.641 20.8832 222.769 20.9754 222.884 21.083L222.597 21.426C222.38 21.239 222.13 21.0932 221.861 20.9957C221.559 20.8968 221.243 20.8483 220.925 20.8522C220.707 20.8404 220.491 20.8924 220.302 21.0019C220.237 21.0394 220.183 21.0929 220.144 21.1573C220.106 21.2218 220.085 21.295 220.083 21.3699C220.08 21.4411 220.095 21.5119 220.127 21.5757C220.155 21.6423 220.2 21.7004 220.258 21.7441C220.333 21.8045 220.417 21.8529 220.508 21.8875L220.894 22.0309L221.986 22.374C222.287 22.4612 222.567 22.6098 222.809 22.8105C222.905 22.8969 222.981 23.0028 223.033 23.1211C223.084 23.2394 223.11 23.3674 223.108 23.4965Z" fill="white"/>
<path d="M227.281 20.9522H225.728V24.5506H224.899V20.9522H223.339V20.5219H227.281V20.9522Z" fill="white"/>
<path d="M229.931 20.422C230.25 20.4175 230.568 20.4639 230.873 20.5592C231.139 20.6386 231.383 20.776 231.589 20.9615C231.795 21.147 231.957 21.376 232.064 21.6319C232.288 22.2225 232.288 22.8748 232.064 23.4654C231.959 23.7195 231.799 23.9474 231.596 24.1327C231.386 24.3169 231.14 24.4549 230.873 24.5381C230.262 24.7172 229.613 24.7172 229.002 24.5381C228.735 24.4549 228.489 24.3169 228.279 24.1327C228.074 23.9485 227.914 23.7203 227.811 23.4654C227.595 22.8733 227.595 22.224 227.811 21.6319C227.914 21.377 228.074 21.1488 228.279 20.9646C228.487 20.7782 228.734 20.6399 229.002 20.5592C229.303 20.4654 229.616 20.4191 229.931 20.422ZM229.931 20.8211C229.743 20.8201 229.557 20.8562 229.382 20.9272C229.211 20.9949 229.057 21.1016 228.933 21.239C228.8 21.3988 228.698 21.5831 228.634 21.7816C228.554 22.0292 228.516 22.2885 228.522 22.5487C228.517 22.8088 228.555 23.0679 228.634 23.3157C228.696 23.513 228.798 23.6955 228.933 23.8521C229.055 23.9931 229.209 24.1023 229.382 24.1701C229.557 24.2411 229.743 24.2772 229.931 24.2762C230.119 24.2759 230.306 24.2399 230.48 24.1701C230.651 24.1006 230.802 23.9916 230.923 23.8521C231.062 23.6975 231.167 23.5145 231.228 23.3157C231.308 23.0679 231.346 22.8088 231.341 22.5487C231.346 22.2885 231.308 22.0292 231.228 21.7816C231.165 21.5816 231.061 21.3969 230.923 21.239C230.8 21.1039 230.649 20.9974 230.48 20.9272C230.306 20.8574 230.119 20.8214 229.931 20.8211Z" fill="white"/>
<path d="M234.995 20.5342C235.256 20.5311 235.516 20.5625 235.768 20.6278C235.977 20.6834 236.173 20.7764 236.348 20.9022C236.5 21.0234 236.624 21.1767 236.71 21.3512C236.8 21.5465 236.842 21.7601 236.835 21.9749C236.844 22.2528 236.763 22.5264 236.604 22.7544C236.433 22.9732 236.204 23.1396 235.943 23.2346L236.891 24.5942H235.943L235.095 23.3843H233.785V24.5942H232.956V20.5654L234.995 20.5342ZM233.748 20.9645V22.9228H234.995C235.126 22.9388 235.259 22.9242 235.383 22.8802C235.508 22.8362 235.621 22.7639 235.712 22.669C235.804 22.5741 235.873 22.4593 235.913 22.3334C235.953 22.2076 235.963 22.0742 235.943 21.9437C235.954 21.8095 235.937 21.6745 235.894 21.5469C235.852 21.4194 235.783 21.3018 235.693 21.2015C235.5 21.0345 235.25 20.9495 234.995 20.9645H233.748Z" fill="white"/>
<path d="M238.357 20.9521V22.2743H240.458V22.7108H238.357V24.1203H241.032V24.5506H237.527V20.5218H241.032V20.9521H238.357Z" fill="white"/>
</svg>
