<svg width="198" height="36" viewBox="0 0 198 36" fill="none" xmlns="http://www.w3.org/2000/svg">
<path fill-rule="evenodd" clip-rule="evenodd" d="M1.12323e-06 5.94301H0.60245C1.13356 5.94262 1.65955 6.04651 2.15035 6.24876C2.64115 6.45101 3.08714 6.74766 3.46283 7.12173C3.83852 7.49581 4.13655 7.93999 4.33989 8.42889C4.54323 8.91779 4.64789 9.44182 4.64789 9.97105V30.5224H4.04544C3.51408 30.5228 2.98785 30.4188 2.49685 30.2164C2.00586 30.014 1.55973 29.717 1.184 29.3426C0.808268 28.9683 0.510299 28.5237 0.307136 28.0345C0.103974 27.5452 -0.000394976 27.0209 1.12323e-06 26.4914V5.94301Z" fill="white"/>
<path fill-rule="evenodd" clip-rule="evenodd" d="M20.8031 18.9576L14.2937 12.4713C13.7043 11.8358 13.3736 11.0044 13.3659 10.1392L13.3448 8.53935V3.8147e-05H12.7424C11.6703 3.8147e-05 10.6421 0.424419 9.88395 1.17982C9.12585 1.93523 8.69995 2.95977 8.69995 4.02807V10.5774V11.3308C8.72055 11.9826 8.85616 12.6257 9.10058 13.2307C9.36294 13.8777 9.74858 14.4678 10.2362 14.9686L15.5829 20.4494C16.2778 21.0595 16.7975 21.8426 17.089 22.7185C17.2809 23.4149 17.401 24.1289 17.4475 24.8496C17.5017 25.66 17.4475 26.0292 17.5439 26.0502C17.8752 26.1312 19.0259 22.8596 19.0259 22.8596L18.1072 21.659L20.8031 18.9576Z" fill="white"/>
<path d="M13.0033 23.6158C12.7247 22.9774 12.3408 22.39 11.8677 21.8779C11.5827 21.54 11.2737 21.223 10.9429 20.9294L5.8733 15.7788C5.14008 14.8014 4.71351 13.6296 4.64732 12.4111V11.7058V10.5052V10.0099C4.64732 8.94161 4.22142 7.91706 3.46332 7.16166C2.70522 6.40625 1.67701 5.98187 0.60489 5.98187H0.00244141V13.0534V14.4191C0.0379282 15.7804 0.585127 17.0787 1.53567 18.057L6.87638 23.5377C6.90349 23.5648 7.01494 23.6578 7.15953 23.7899C7.38787 23.9964 7.6041 24.2159 7.80716 24.4472C8.1203 24.786 8.36749 25.1799 8.53613 25.6088C8.67169 25.9599 8.73619 26.3343 8.7259 26.7103L8.74698 28.3072V36H9.34943C10.4216 36 11.4498 35.5757 12.2079 34.8203C12.966 34.0649 13.3919 33.0403 13.3919 31.972V26.2691C13.3919 26.017 13.3919 25.7649 13.3919 25.5157C13.3767 24.8644 13.2451 24.2211 13.0033 23.6158Z" fill="white"/>
<path fill-rule="evenodd" clip-rule="evenodd" d="M17.4253 5.94301H18.0277C18.5589 5.94262 19.0848 6.04651 19.5756 6.24876C20.0664 6.45101 20.5124 6.74766 20.8881 7.12173C21.2638 7.49581 21.5618 7.93999 21.7652 8.42889C21.9685 8.91779 22.0732 9.44182 22.0732 9.97105V30.5224H21.4707C20.9396 30.5224 20.4137 30.4181 19.9231 30.2155C19.4324 30.0129 18.9867 29.7159 18.6112 29.3416C18.2358 28.9672 17.9381 28.5228 17.7352 28.0338C17.5322 27.5447 17.4279 27.0206 17.4283 26.4914V5.94301H17.4253Z" fill="white"/>
<path fill-rule="evenodd" clip-rule="evenodd" d="M196.328 13.1893C195.375 12.4559 194.138 12.4559 192.836 12.4559H174.904C173.592 12.4559 172.355 12.4559 171.412 13.1893C170.374 13.9876 169.915 15.5193 169.915 18.0039C169.915 20.4885 170.414 21.9953 171.412 22.8185C172.365 23.5519 173.602 23.5519 174.904 23.5519H192.826C194.138 23.5519 195.375 23.5519 196.318 22.8185C197.356 22.0152 197.815 20.4885 197.815 18.0039C197.815 15.5193 197.366 13.9876 196.328 13.1893ZM195.714 22.0202C195.031 22.5491 194.008 22.5491 192.826 22.5491H174.904C173.722 22.5491 172.699 22.5491 172.016 22.0202C171.257 21.4365 170.888 20.1193 170.888 18.0289C170.888 15.9384 171.257 14.5963 172.016 14.0076C172.699 13.4837 173.722 13.4837 174.904 13.4837H192.826C194.008 13.4837 195.031 13.4837 195.714 14.0076C196.398 14.5314 196.842 15.9084 196.842 18.0289C196.842 20.1493 196.473 21.4365 195.714 22.0202Z" fill="white"/>
<path d="M43.1045 13.3042V23.0481H41.1088V18.8023H35.3812V23.0481H33.3606V13.3042H35.3812V17.7595H41.0889V13.3042H43.1045Z" fill="white"/>
<path d="M50.3239 13.0247C51.0969 13.0143 51.8666 13.1271 52.604 13.359C53.2506 13.5665 53.847 13.9064 54.3552 14.3569C54.8498 14.8045 55.2383 15.3567 55.4928 15.9734C56.0314 17.3993 56.0314 18.9728 55.4928 20.3988C55.2412 21.017 54.8522 21.5698 54.3552 22.0153C53.8496 22.4694 53.2524 22.8096 52.604 23.0131C51.8666 23.245 51.0969 23.3578 50.3239 23.3474C49.551 23.3575 48.7814 23.2447 48.0439 23.0131C47.392 22.8108 46.7913 22.4705 46.2827 22.0153C45.7872 21.5706 45.4012 21.0174 45.1551 20.3988C44.6228 18.9717 44.6228 17.4005 45.1551 15.9734C45.4038 15.3561 45.7893 14.8034 46.2827 14.3569C46.7938 13.9052 47.3937 13.5653 48.0439 13.359C48.7814 13.1275 49.551 13.0146 50.3239 13.0247ZM50.3239 14.0226C49.8695 14.0186 49.4187 14.1033 48.9968 14.272C48.582 14.4372 48.2126 14.6989 47.9191 15.0354C47.5911 15.4168 47.3419 15.8594 47.1857 16.3376C46.8266 17.5505 46.8266 18.8416 47.1857 20.0545C47.3419 20.5327 47.5911 20.9753 47.9191 21.3567C48.2137 21.6932 48.5827 21.9563 48.9968 22.1251C49.852 22.4578 50.8009 22.4578 51.656 22.1251C52.0702 21.9563 52.4392 21.6932 52.7337 21.3567C53.0617 20.9753 53.311 20.5327 53.4671 20.0545C53.8263 18.8416 53.8263 17.5505 53.4671 16.3376C53.311 15.8594 53.0617 15.4168 52.7337 15.0354C52.4465 14.6997 52.0841 14.4364 51.676 14.2671C51.2473 14.09 50.7877 14.0001 50.3239 14.0026V14.0226Z" fill="white"/>
<path d="M66.2894 14.3469H62.5275V23.0481H60.5318V14.3469H56.75V13.3042H66.2894V14.3469Z" fill="white"/>
<path d="M69.4176 14.3469V17.55H74.5016V18.5927H69.4176V22.0053H75.9035V23.0481H67.4219V13.3042H75.9035V14.3469H69.4176Z" fill="white"/>
<path d="M85.2933 22.0053V23.0481H77.2656V13.3042H79.2613V22.0053H85.2933Z" fill="white"/>
<path d="M95.596 20.4736C95.5984 20.8624 95.5114 21.2465 95.3416 21.5962C95.157 21.9651 94.876 22.2772 94.5283 22.4993C94.0801 22.7856 93.5855 22.9916 93.0665 23.1079C92.3425 23.2667 91.6024 23.3404 90.8613 23.3275C90.3785 23.3291 89.8964 23.2924 89.4194 23.2177C88.9659 23.1472 88.5187 23.0404 88.0823 22.8984C87.6779 22.7703 87.2869 22.6033 86.9148 22.3995C86.5791 22.2177 86.2674 21.9948 85.9868 21.7359L86.6853 20.9027C87.2289 21.3658 87.8577 21.7183 88.5363 21.9405C89.2871 22.1833 90.0722 22.3029 90.8613 22.2947C91.5496 22.3509 92.2401 22.2162 92.857 21.9055C93.0398 21.7936 93.1899 21.6356 93.2924 21.4473C93.3948 21.2591 93.446 21.0472 93.4407 20.8329C93.4399 20.6584 93.398 20.4865 93.3182 20.3313C93.2384 20.1761 93.1231 20.042 92.9817 19.9398C92.5033 19.62 91.9758 19.3807 91.4201 19.2313L88.7758 18.3981C88.0371 18.2008 87.3541 17.8354 86.7801 17.3304C86.5599 17.1168 86.3867 16.8596 86.2716 16.5752C86.1565 16.2909 86.102 15.9856 86.1115 15.679C86.111 15.3315 86.1949 14.9891 86.356 14.6812C86.5348 14.3401 86.7954 14.0487 87.1144 13.833C87.5144 13.5591 87.9606 13.3596 88.4315 13.2443C89.0618 13.0915 89.7089 13.0194 90.3574 13.0297C90.8119 13.0314 91.2656 13.0681 91.7144 13.1395C92.1548 13.2128 92.5886 13.3213 93.0116 13.4638C93.4102 13.5947 93.7959 13.7617 94.1641 13.9627C94.4985 14.1446 94.8101 14.3657 95.0921 14.6213L94.3936 15.4595C93.8708 15.0042 93.2664 14.652 92.6125 14.4217C91.8875 14.1715 91.1243 14.0499 90.3574 14.0625C89.8107 14.0271 89.2657 14.1538 88.7907 14.4267C88.6388 14.5212 88.5134 14.6527 88.4261 14.8089C88.3389 14.9651 88.2927 15.1409 88.2918 15.3198C88.2888 15.4913 88.3228 15.6615 88.3916 15.8187C88.4678 15.9776 88.5807 16.1161 88.7209 16.2228C88.9041 16.3679 89.1075 16.4856 89.3246 16.5721C89.5741 16.6818 89.8884 16.7916 90.2576 16.9163L92.8869 17.7495C93.6199 17.9557 94.3004 18.3164 94.8826 18.8073C95.1162 19.0159 95.3011 19.2733 95.4244 19.5612C95.5477 19.8491 95.6063 20.1606 95.596 20.4736Z" fill="white"/>
<path d="M102.97 19.1514H96.5688V17.8991H102.97V19.1514Z" fill="white"/>
<path d="M106.522 14.3469V17.55H111.606V18.5927H106.522V22.0053H113.008V23.0481H104.527V13.3042H113.008V14.3469H106.522Z" fill="white"/>
<path d="M119.919 18.0539L124.065 23.0431H121.7L118.731 19.4808L115.782 23.0431H113.413L117.549 18.0539L113.622 13.3042H115.992L118.731 16.632L121.49 13.3042H123.855L119.919 18.0539Z" fill="white"/>
<path d="M130.056 13.3041C130.689 13.2952 131.32 13.3724 131.932 13.5336C132.439 13.6633 132.915 13.8904 133.334 14.2021C133.708 14.4845 134.009 14.8523 134.212 15.2748C134.424 15.7256 134.53 16.2188 134.522 16.7167C134.53 17.213 134.424 17.7046 134.212 18.1536C134.011 18.5769 133.709 18.945 133.334 19.2262C132.916 19.54 132.439 19.7673 131.932 19.8948C131.32 20.0559 130.689 20.1331 130.056 20.1243H127.063V23.048H125.042V13.3041H130.056ZM127.063 14.3468V19.0816H130.056C130.376 19.0962 130.696 19.0459 130.996 18.9336C131.296 18.8212 131.57 18.6492 131.802 18.4279C132.034 18.2067 132.218 17.9407 132.344 17.6461C132.47 17.3516 132.535 17.0345 132.535 16.7142C132.535 16.3938 132.47 16.0768 132.344 15.7822C132.218 15.4877 132.034 15.2217 131.802 15.0004C131.57 14.7791 131.296 14.6071 130.996 14.4948C130.696 14.3824 130.376 14.3321 130.056 14.3468H127.063Z" fill="white"/>
<path d="M138.059 14.3469V17.55H143.123V18.5927H138.059V22.0053H144.545V23.0481H136.064V13.3042H144.545V14.3469H138.059Z" fill="white"/>
<path d="M150.936 13.3042C151.568 13.2958 152.197 13.373 152.807 13.5337C153.312 13.6632 153.787 13.8903 154.204 14.2022C154.583 14.4801 154.889 14.8445 155.097 15.2649C155.309 15.7158 155.415 16.2089 155.407 16.7068C155.427 17.376 155.231 18.0339 154.848 18.5828C154.442 19.1234 153.884 19.5315 153.246 19.7552L155.546 23.0381H153.246L151.201 20.1145H147.958V23.0381H145.962V13.3042H150.936ZM147.943 14.3469V19.0817H150.936C151.556 19.121 152.166 18.9129 152.633 18.5029C153.018 17.9861 153.226 17.3588 153.226 16.7143C153.226 16.0698 153.018 15.4425 152.633 14.9257C152.166 14.5158 151.556 14.3076 150.936 14.3469H147.943Z" fill="white"/>
<path d="M165.765 14.3469H162.003V23.0481H160.007V14.3469H156.245V13.3042H165.784L165.765 14.3469Z" fill="white"/>
<path d="M178.487 18.7972C178.489 18.9248 178.461 19.0511 178.407 19.1664C178.345 19.2885 178.252 19.3919 178.137 19.4658C177.985 19.5636 177.816 19.6329 177.638 19.6703C177.399 19.7202 177.155 19.7437 176.91 19.7402C176.743 19.7425 176.576 19.7308 176.411 19.7053C176.262 19.6814 176.116 19.6464 175.972 19.6005C175.838 19.554 175.708 19.4973 175.583 19.4309C175.473 19.37 175.371 19.2963 175.279 19.2113L175.508 18.9369C175.689 19.09 175.897 19.2068 176.122 19.2812C176.37 19.3593 176.63 19.398 176.89 19.3959C177.117 19.4132 177.345 19.3683 177.549 19.2662C177.609 19.2294 177.659 19.1773 177.693 19.1152C177.728 19.053 177.745 18.9829 177.743 18.912C177.742 18.8542 177.728 18.7975 177.701 18.7464C177.674 18.6953 177.636 18.6512 177.589 18.6176C177.436 18.5123 177.268 18.433 177.09 18.3831L176.212 18.1087C175.97 18.04 175.747 17.919 175.558 17.7545C175.486 17.684 175.429 17.5993 175.391 17.5056C175.353 17.412 175.335 17.3116 175.338 17.2107C175.34 17.0963 175.367 16.9838 175.418 16.8814C175.479 16.769 175.566 16.6731 175.673 16.602C175.803 16.508 175.95 16.4418 176.107 16.4074C176.314 16.3556 176.527 16.3321 176.74 16.3375C176.892 16.3366 177.044 16.3482 177.194 16.3725C177.338 16.3968 177.48 16.4318 177.619 16.4772C177.752 16.5216 177.88 16.5784 178.003 16.6469C178.113 16.7065 178.216 16.7803 178.307 16.8664L178.078 17.1408C177.904 16.9912 177.704 16.8746 177.489 16.7966C177.247 16.7174 176.994 16.6786 176.74 16.6818C176.566 16.6723 176.393 16.714 176.241 16.8015C176.19 16.8315 176.146 16.8743 176.116 16.9259C176.085 16.9774 176.068 17.036 176.067 17.0959C176.064 17.1529 176.076 17.2095 176.102 17.2605C176.124 17.3139 176.16 17.3603 176.207 17.3953C176.267 17.4436 176.334 17.4823 176.406 17.51L176.715 17.6248L177.589 17.8992C177.83 17.9689 178.054 18.0878 178.247 18.2484C178.324 18.3175 178.385 18.4022 178.426 18.4969C178.468 18.5915 178.488 18.694 178.487 18.7972Z" fill="white"/>
<path d="M181.825 16.7617H180.583V19.6405H179.919V16.7617H178.672V16.4175H181.825V16.7617Z" fill="white"/>
<path d="M183.945 16.3376C184.2 16.334 184.455 16.3711 184.698 16.4474C184.911 16.5109 185.107 16.6208 185.271 16.7692C185.436 16.9176 185.566 17.1008 185.651 17.3055C185.831 17.778 185.831 18.2999 185.651 18.7723C185.567 18.9756 185.44 19.1579 185.277 19.3062C185.109 19.4535 184.912 19.564 184.698 19.6305C184.21 19.7738 183.69 19.7738 183.202 19.6305C182.988 19.564 182.791 19.4535 182.623 19.3062C182.459 19.1588 182.332 18.9763 182.249 18.7723C182.076 18.2987 182.076 17.7792 182.249 17.3055C182.332 17.1016 182.459 16.9191 182.623 16.7717C182.79 16.6226 182.987 16.5119 183.202 16.4474C183.442 16.3723 183.693 16.3353 183.945 16.3376ZM183.945 16.6569C183.795 16.6561 183.645 16.6849 183.506 16.7417C183.369 16.7959 183.246 16.8813 183.147 16.9912C183.04 17.1191 182.958 17.2665 182.907 17.4253C182.843 17.6234 182.813 17.8308 182.817 18.0389C182.814 18.247 182.844 18.4544 182.907 18.6526C182.957 18.8104 183.039 18.9564 183.147 19.0817C183.244 19.1945 183.367 19.2819 183.506 19.3361C183.645 19.3929 183.795 19.4217 183.945 19.4209C184.095 19.4207 184.244 19.3919 184.384 19.3361C184.521 19.2805 184.642 19.1933 184.738 19.0817C184.85 18.958 184.933 18.8116 184.983 18.6526C185.046 18.4544 185.077 18.247 185.073 18.0389C185.077 17.8308 185.047 17.6234 184.983 17.4253C184.932 17.2653 184.849 17.1175 184.738 16.9912C184.64 16.8831 184.519 16.7979 184.384 16.7417C184.244 16.6859 184.095 16.6571 183.945 16.6569Z" fill="white"/>
<path d="M187.996 16.4274C188.205 16.4249 188.413 16.45 188.615 16.5022C188.781 16.5467 188.938 16.6211 189.079 16.7217C189.2 16.8187 189.299 16.9414 189.368 17.081C189.44 17.2372 189.474 17.4081 189.468 17.5799C189.475 17.8023 189.411 18.0211 189.283 18.2035C189.146 18.3785 188.963 18.5116 188.754 18.5877L189.513 19.6753H188.754L188.076 18.7074H187.028V19.6753H186.365V16.4523L187.996 16.4274ZM186.998 16.7716V18.3382H187.996C188.101 18.3511 188.207 18.3394 188.307 18.3042C188.406 18.2689 188.496 18.2111 188.57 18.1352C188.643 18.0593 188.698 17.9674 188.73 17.8667C188.762 17.7661 188.771 17.6593 188.754 17.5549C188.763 17.4476 188.75 17.3396 188.716 17.2376C188.681 17.1355 188.627 17.0415 188.555 16.9612C188.4 16.8276 188.2 16.7596 187.996 16.7716H186.998Z" fill="white"/>
<path d="M190.686 16.7617V17.8194H192.367V18.1687H190.686V19.2962H192.826V19.6405H190.022V16.4174H192.826V16.7617H190.686Z" fill="white"/>
</svg>
