<svg width="26" height="26" viewBox="0 0 26 26" fill="none" xmlns="http://www.w3.org/2000/svg">
<path d="M7.25834 19.5H4.49586C2.94669 19.5 2.16666 18.72 2.16666 17.1708V4.49585C2.16666 2.94668 2.94669 2.16666 4.49586 2.16666H9.15418C10.7033 2.16666 11.4833 2.94668 11.4833 4.49585V6.49999" stroke="#9FA5A9" stroke-width="2" stroke-miterlimit="10" stroke-linecap="round" stroke-linejoin="round"/>
<path d="M18.8175 9.12165V21.2117C18.8175 22.9559 17.9509 23.8333 16.2067 23.8333H9.87999C8.13583 23.8333 7.25835 22.9559 7.25835 21.2117V9.12165C7.25835 7.37748 8.13583 6.5 9.87999 6.5H16.2067C17.9509 6.5 18.8175 7.37748 18.8175 9.12165Z" stroke="#9FA5A9" stroke-width="2" stroke-miterlimit="10" stroke-linecap="round" stroke-linejoin="round"/>
<path d="M14.5167 6.49999V4.49585C14.5167 2.94668 15.2967 2.16666 16.8458 2.16666H21.5041C23.0533 2.16666 23.8333 2.94668 23.8333 4.49585V17.1708C23.8333 18.72 23.0533 19.5 21.5041 19.5H18.8175" stroke="#9FA5A9" stroke-width="2" stroke-miterlimit="10" stroke-linecap="round" stroke-linejoin="round"/>
<path d="M10.8333 11.9167H15.1667" stroke="#9FA5A9" stroke-width="2" stroke-miterlimit="10" stroke-linecap="round" stroke-linejoin="round"/>
<path d="M10.8333 15.1667H15.1667" stroke="#9FA5A9" stroke-width="2" stroke-miterlimit="10" stroke-linecap="round" stroke-linejoin="round"/>
<path d="M13 23.8333V20.5833" stroke="#9FA5A9" stroke-width="2" stroke-miterlimit="10" stroke-linecap="round" stroke-linejoin="round"/>
</svg>
