<svg width="100" height="100" viewBox="0 0 100 100" fill="none" xmlns="http://www.w3.org/2000/svg">
<rect x="0.5" y="0.5" width="99" height="99" rx="49.5" stroke="white" stroke-opacity="0.4"/>
<path d="M50.2666 48.1166C50.1 48.1 49.9 48.1 49.7166 48.1166C45.75 47.9833 42.6 44.7333 42.6 40.7333C42.6 36.65 45.9 33.3333 50 33.3333C54.0833 33.3333 57.4 36.65 57.4 40.7333C57.3833 44.7333 54.2333 47.9833 50.2666 48.1166Z" fill="white"/>
<path d="M41.9333 54.2667C37.9 56.9667 37.9 61.3667 41.9333 64.05C46.5167 67.1167 54.0333 67.1167 58.6167 64.05C62.65 61.35 62.65 56.95 58.6167 54.2667C54.05 51.2167 46.5333 51.2167 41.9333 54.2667Z" fill="white"/>
</svg>
