<svg width="25" height="24" viewBox="0 0 25 24" fill="none" xmlns="http://www.w3.org/2000/svg">
<path d="M9.52832 10C10.6329 10 11.5283 9.10457 11.5283 8C11.5283 6.89543 10.6329 6 9.52832 6C8.42375 6 7.52832 6.89543 7.52832 8C7.52832 9.10457 8.42375 10 9.52832 10Z" stroke="#101E29" stroke-width="2" stroke-linecap="round" stroke-linejoin="round"/>
<path d="M13.5283 2H9.52832C4.52832 2 2.52832 4 2.52832 9V15C2.52832 20 4.52832 22 9.52832 22H15.5283C20.5283 22 22.5283 20 22.5283 15V10" stroke="#101E29" stroke-width="2" stroke-linecap="round" stroke-linejoin="round"/>
<path d="M11.5283 2H15.5283C20.5283 2 22.5283 4 22.5283 9V15C22.5283 20 20.5283 22 15.5283 22H9.52832C4.52832 22 2.52832 20 2.52832 15V10" stroke="#101E29" stroke-width="2" stroke-linecap="round" stroke-linejoin="round"/>
<path d="M3.19824 18.9501L8.12824 15.6401C8.91824 15.1101 10.0582 15.1701 10.7682 15.7801L11.0982 16.0701C11.8782 16.7401 13.1382 16.7401 13.9182 16.0701L18.0782 12.5001C18.8582 11.8301 20.1182 11.8301 20.8982 12.5001L22.5282 13.9001" stroke="#101E29" stroke-width="2" stroke-linecap="round" stroke-linejoin="round"/>
</svg>
