<svg width="25" height="24" viewBox="0 0 25 24" fill="none" xmlns="http://www.w3.org/2000/svg">
<path d="M9.52832 22H15.5283C20.5283 22 22.5283 20 22.5283 15V9C22.5283 4 20.5283 2 15.5283 2H9.52832C4.52832 2 2.52832 4 2.52832 9V15C2.52832 20 4.52832 22 9.52832 22Z" stroke="#101E29" stroke-width="2" stroke-linecap="round" stroke-linejoin="round"/>
<path d="M9.62842 12V10.52C9.62842 8.60999 10.9784 7.83999 12.6284 8.78999L13.9084 9.52999L15.1884 10.27C16.8384 11.22 16.8384 12.78 15.1884 13.73L13.9084 14.47L12.6284 15.21C10.9784 16.16 9.62842 15.38 9.62842 13.48V12Z" stroke="#101E29" stroke-width="2" stroke-miterlimit="10" stroke-linecap="round" stroke-linejoin="round"/>
</svg>
