<svg width="814" height="361" viewBox="0 0 814 361" fill="none" xmlns="http://www.w3.org/2000/svg">
<path d="M521 24H292.943C264.301 24 241 47.3015 241 75.9429V251.562C241 280.204 264.301 303.505 292.943 303.505H313.326L313.725 349.361C313.76 353.587 316.188 357.428 319.989 359.275C321.534 360.026 323.198 360.395 324.853 360.395C327.27 360.395 329.67 359.609 331.655 358.076L402.358 303.507H521C549.641 303.507 572.943 280.205 572.943 251.564V75.9429C572.943 47.3015 549.641 24 521 24Z" fill="white"/>
<path d="M112.35 275.721V228.213H6.42V194.829L112.35 51.0205H160.5V188.409H185.859V228.213H160.5V275.721H112.35ZM51.36 188.409H112.35V104.628L51.36 188.409Z" fill="white"/>
<path d="M724.35 275.721V228.213H618.42V194.829L724.35 51.0205H772.5V188.409H797.859V228.213H772.5V275.721H724.35ZM663.36 188.409H724.35V104.628L663.36 188.409Z" fill="white"/>
</svg>
