<svg width="28" height="46" viewBox="0 0 28 46" fill="none" xmlns="http://www.w3.org/2000/svg">
<path fill-rule="evenodd" clip-rule="evenodd" d="M1.39903e-06 7.92871H0.750381C1.41191 7.92822 2.06705 8.05809 2.67836 8.3109C3.28968 8.56372 3.84518 8.93452 4.31312 9.40211C4.78107 9.86971 5.15228 10.4249 5.40555 11.0361C5.65882 11.6472 5.78918 12.3022 5.78918 12.9638V38.653H5.0388C4.37696 38.6535 3.72151 38.5235 3.10995 38.2704C2.4984 38.0174 1.94273 37.6462 1.47473 37.1782C1.00674 36.7103 0.635602 36.1546 0.382554 35.543C0.129505 34.9315 -0.000491962 34.276 1.39903e-06 33.6142V7.92871Z" fill="#353546"/>
<path fill-rule="evenodd" clip-rule="evenodd" d="M25.9113 24.197L17.8034 16.0891C17.0693 15.2947 16.6574 14.2555 16.6478 13.1739L16.6216 11.1741V0.5H15.8712C14.5358 0.5 13.2551 1.03048 12.3109 1.97473C11.3666 2.91898 10.8361 4.19967 10.8361 5.53504V13.7217V14.6634C10.8618 15.4782 11.0307 16.2821 11.3351 17.0384C11.6619 17.847 12.1422 18.5847 12.7496 19.2107L19.4092 26.0617C20.2747 26.8243 20.9221 27.8032 21.2852 28.8981C21.5241 29.7686 21.6737 30.6611 21.7316 31.5619C21.7992 32.5749 21.7316 33.0364 21.8517 33.0627C22.2644 33.164 23.6976 29.0744 23.6976 29.0744L22.5533 27.5737L25.9113 24.197Z" fill="#353546"/>
<path d="M16.1961 30.0199C15.8491 29.222 15.371 28.4877 14.7817 27.8476C14.4267 27.4252 14.0418 27.029 13.6298 26.662L7.31538 20.2237C6.40212 19.0019 5.8708 17.5372 5.78836 16.0141V15.1324V13.6316V13.0126C5.78836 11.6772 5.25788 10.3965 4.31362 9.45227C3.36937 8.50801 2.08869 7.97754 0.753309 7.97754H0.00292969V16.817V18.5241C0.0471302 20.2256 0.728694 21.8485 1.91265 23.0714L8.56476 29.9224C8.59853 29.9561 8.73735 30.0724 8.91744 30.2375C9.20184 30.4957 9.47117 30.7701 9.7241 31.0592C10.1141 31.4827 10.422 31.9751 10.6321 32.5112C10.8009 32.9501 10.8812 33.418 10.8684 33.8881L10.8947 35.8841V45.5002H11.6451C12.9804 45.5002 14.2611 44.9698 15.2054 44.0255C16.1496 43.0813 16.6801 41.8006 16.6801 40.4652V33.3366C16.6801 33.0214 16.6801 32.7063 16.6801 32.3949C16.6612 31.5807 16.4973 30.7765 16.1961 30.0199Z" fill="#353546"/>
<path fill-rule="evenodd" clip-rule="evenodd" d="M21.7041 7.92871H22.4545C23.116 7.92822 23.7712 8.05809 24.3825 8.3109C24.9938 8.56372 25.5493 8.93452 26.0172 9.40211C26.4852 9.86971 26.8564 10.4249 27.1097 11.0361C27.3629 11.6472 27.4933 12.3022 27.4933 12.9638V38.653H26.7429C26.0814 38.653 25.4263 38.5226 24.8152 38.2694C24.2041 38.0161 23.6489 37.6449 23.1813 37.1769C22.7137 36.709 22.3429 36.1535 22.09 35.5422C21.8372 34.9308 21.7074 34.2757 21.7079 33.6142V7.92871H21.7041Z" fill="#353546"/>
</svg>
