<!-- icon666.com - MILLIONS vector ICONS FREE --><svg xmlns="http://www.w3.org/2000/svg" viewBox="0 0 100 100"><g id="Layer_2" data-name="Layer 2"><path d="M17.5,67.5h-.4a7.5,7.5,0,0,0,0,15H35.23a15,15,0,0,0,29.54,0H82.9a7.5,7.5,0,0,0,0-15h-.4V50a32.4,32.4,0,0,0-20-30h0A12.53,12.53,0,0,0,46,8.13,12.32,12.32,0,0,0,37.5,20a32.43,32.43,0,0,0-20,30ZM50,90a10,10,0,0,1-9.68-7.5H59.68A10,10,0,0,1,50,90ZM85.4,75a2.5,2.5,0,0,1-2.5,2.5H17.1a2.5,2.5,0,0,1,0-5H82.9A2.5,2.5,0,0,1,85.4,75ZM22.5,50a27.44,27.44,0,0,1,17-25.43,4.92,4.92,0,0,0,3-4.57,7.42,7.42,0,0,1,5-7.1,7.67,7.67,0,0,1,6.91,1A7.55,7.55,0,0,1,57.5,20a4.92,4.92,0,0,0,3,4.56A27.43,27.43,0,0,1,77.5,50V67.5h-55Z" fill="#000000" style="fill: rgb(23, 37, 40);"></path></g></svg>