<svg width="248" height="46" viewBox="0 0 248 46" fill="none" xmlns="http://www.w3.org/2000/svg">
<path fill-rule="evenodd" clip-rule="evenodd" d="M0.000104401 7.9288H0.753165C1.41706 7.9283 2.07454 8.05817 2.68804 8.31099C3.30153 8.5638 3.85902 8.9346 4.32864 9.4022C4.79826 9.8698 5.1708 10.425 5.42497 11.0361C5.67914 11.6473 5.80997 12.3023 5.80997 12.9638V38.6531H5.05691C4.3927 38.6536 3.73491 38.5236 3.12117 38.2705C2.50743 38.0175 1.94977 37.6463 1.4801 37.1783C1.01044 36.7103 0.637976 36.1547 0.384023 35.5431C0.130071 34.9316 -0.000390723 34.2761 0.000104401 33.6143V7.9288Z" fill="#101E29"/>
<path fill-rule="evenodd" clip-rule="evenodd" d="M26.0041 24.197L17.8673 16.0892C17.1306 15.2948 16.7172 14.2555 16.7076 13.174L16.6812 11.1742V0.500061H15.9281C14.588 0.500061 13.3027 1.03054 12.3551 1.97479C11.4075 2.91904 10.8751 4.19973 10.8751 5.5351V13.7217V14.6635C10.9008 15.4783 11.0704 16.2822 11.3759 17.0384C11.7038 17.8471 12.1859 18.5848 12.7954 19.2108L19.4788 26.0617C20.3474 26.8244 20.9971 27.8032 21.3615 28.8982C21.6012 29.7686 21.7514 30.6612 21.8095 31.562C21.8773 32.575 21.8095 33.0365 21.93 33.0628C22.3442 33.1641 23.7826 29.0745 23.7826 29.0745L22.6341 27.5737L26.0041 24.197Z" fill="#101E29"/>
<path d="M16.2541 30.0198C15.9058 29.2218 15.426 28.4876 14.8346 27.8474C14.4784 27.425 14.092 27.0288 13.6786 26.6618L7.3416 20.2236C6.42508 19.0018 5.89187 17.5371 5.80913 16.0139V15.1322V13.6315V13.0124C5.80913 11.677 5.27675 10.3964 4.32913 9.45211C3.3815 8.50785 2.09624 7.97738 0.75609 7.97738H0.00302887V16.8168V18.524C0.0473873 20.2255 0.731386 21.8484 1.91957 23.0713L8.59545 29.9222C8.62934 29.956 8.76866 30.0723 8.94939 30.2374C9.23481 30.4956 9.5051 30.7699 9.75893 31.059C10.1504 31.4826 10.4593 31.9749 10.6701 32.511C10.8396 32.9499 10.9202 33.4179 10.9073 33.888L10.9337 35.884V45.5001H11.6868C13.0269 45.5001 14.3122 44.9696 15.2598 44.0253C16.2074 43.0811 16.7398 41.8004 16.7398 40.465V33.3364C16.7398 33.0213 16.7398 32.7061 16.7398 32.3947C16.7208 31.5806 16.5564 30.7764 16.2541 30.0198Z" fill="#101E29"/>
<path fill-rule="evenodd" clip-rule="evenodd" d="M21.7818 7.9288H22.5349C23.1988 7.9283 23.8563 8.05817 24.4698 8.31099C25.0833 8.5638 25.6408 8.9346 26.1104 9.4022C26.58 9.8698 26.9525 10.425 27.2067 11.0361C27.4609 11.6473 27.5917 12.3023 27.5917 12.9638V38.6531H26.8387C26.1748 38.6531 25.5174 38.5227 24.9041 38.2694C24.2908 38.0162 23.7335 37.645 23.2643 37.177C22.795 36.7091 22.4229 36.1536 22.1692 35.5423C21.9155 34.9309 21.7851 34.2758 21.7856 33.6143V7.9288H21.7818Z" fill="#101E29"/>
<path fill-rule="evenodd" clip-rule="evenodd" d="M245.41 16.9867C244.219 16.0699 242.672 16.0699 241.045 16.0699H218.631C216.99 16.0699 215.444 16.0699 214.265 16.9867C212.968 17.9845 212.394 19.8991 212.394 23.0049C212.394 26.1107 213.018 27.9941 214.265 29.0231C215.456 29.9399 217.003 29.9399 218.631 29.9399H241.032C242.672 29.9399 244.219 29.9399 245.398 29.0231C246.695 28.019 247.269 26.1107 247.269 23.0049C247.269 19.8991 246.707 17.9845 245.41 16.9867ZM244.643 28.0253C243.789 28.6863 242.51 28.6864 241.032 28.6864H218.631C217.152 28.6864 215.874 28.6863 215.02 28.0253C214.072 27.2956 213.61 25.6492 213.61 23.0361C213.61 20.423 214.072 18.7454 215.02 18.0094C215.874 17.3546 217.152 17.3546 218.631 17.3546H241.032C242.51 17.3546 243.789 17.3546 244.643 18.0094C245.497 18.6643 246.052 20.3856 246.052 23.0361C246.052 25.6866 245.591 27.2956 244.643 28.0253Z" fill="#101E29"/>
<path d="M53.8806 17.1302V29.3101H51.386V24.0028H44.2265V29.3101H41.7007V17.1302H44.2265V22.6994H51.361V17.1302H53.8806Z" fill="#101E29"/>
<path d="M62.9049 16.7809C63.8711 16.7679 64.8332 16.9089 65.755 17.1988C66.5633 17.4582 67.3088 17.8829 67.944 18.4461C68.5622 19.0056 69.0479 19.6959 69.3659 20.4667C70.0393 22.2492 70.0393 24.216 69.3659 25.9985C69.0515 26.7713 68.5652 27.4623 67.944 28.0191C67.312 28.5867 66.5655 29.012 65.755 29.2664C64.8332 29.5563 63.8711 29.6973 62.9049 29.6843C61.9387 29.6969 60.9767 29.5558 60.0548 29.2664C59.24 29.0135 58.4891 28.5881 57.8533 28.0191C57.2339 27.4633 56.7515 26.7717 56.4439 25.9985C55.7785 24.2146 55.7785 22.2506 56.4439 20.4667C56.7547 19.6952 57.2366 19.0043 57.8533 18.4461C58.4922 17.8814 59.2421 17.4566 60.0548 17.1988C60.9767 16.9094 61.9387 16.7683 62.9049 16.7809ZM62.9049 18.0282C62.3369 18.0233 61.7734 18.1292 61.246 18.3401C60.7275 18.5465 60.2657 18.8736 59.8989 19.2942C59.4889 19.771 59.1773 20.3242 58.9821 20.922C58.5332 22.4382 58.5332 24.052 58.9821 25.5682C59.1773 26.1659 59.4889 26.7191 59.8989 27.1959C60.2671 27.6165 60.7284 27.9454 61.246 28.1563C62.315 28.5722 63.5011 28.5722 64.57 28.1563C65.0877 27.9454 65.5489 27.6165 65.9171 27.1959C66.3271 26.7191 66.6387 26.1659 66.8339 25.5682C67.2829 24.052 67.2829 22.4382 66.8339 20.922C66.6387 20.3242 66.3271 19.771 65.9171 19.2942C65.5581 18.8746 65.1051 18.5455 64.595 18.3338C64.0592 18.1125 63.4846 18.0002 62.9049 18.0033V18.0282Z" fill="#101E29"/>
<path d="M82.8617 18.4336H78.1594V29.3101H75.6648V18.4336H70.9375V17.1302H82.8617V18.4336Z" fill="#101E29"/>
<path d="M86.7719 18.4336V22.4374H93.1269V23.7409H86.7719V28.0066H94.8794V29.3101H84.2773V17.1302H94.8794V18.4336H86.7719Z" fill="#101E29"/>
<path d="M106.617 28.0066V29.3101H96.582V17.1302H99.0766V28.0066H106.617Z" fill="#101E29"/>
<path d="M119.495 26.0921C119.498 26.578 119.389 27.0581 119.177 27.4953C118.946 27.9564 118.595 28.3465 118.16 28.6241C117.6 28.982 116.982 29.2395 116.333 29.3849C115.428 29.5834 114.503 29.6755 113.576 29.6593C112.973 29.6614 112.37 29.6155 111.774 29.5221C111.207 29.434 110.648 29.3005 110.103 29.123C109.597 28.9629 109.108 28.7541 108.643 28.4994C108.224 28.2721 107.834 27.9934 107.483 27.6699L108.356 26.6284C109.036 27.2072 109.822 27.6478 110.67 27.9256C111.609 28.2291 112.59 28.3786 113.576 28.3684C114.437 28.4386 115.3 28.2703 116.071 27.8819C116.3 27.742 116.487 27.5445 116.615 27.3092C116.743 27.0738 116.807 26.8089 116.801 26.5411C116.8 26.323 116.747 26.1082 116.648 25.9142C116.548 25.7202 116.404 25.5525 116.227 25.4248C115.629 25.025 114.97 24.7259 114.275 24.5392L110.97 23.4977C110.046 23.251 109.193 22.7943 108.475 22.1631C108.2 21.896 107.983 21.5745 107.839 21.2191C107.695 20.8636 107.627 20.4821 107.639 20.0988C107.639 19.6644 107.744 19.2364 107.945 18.8515C108.168 18.4252 108.494 18.0609 108.893 17.7913C109.393 17.4488 109.951 17.1995 110.539 17.0554C111.327 16.8643 112.136 16.7742 112.947 16.7872C113.515 16.7892 114.082 16.8351 114.643 16.9244C115.193 17.016 115.736 17.1516 116.264 17.3298C116.763 17.4934 117.245 17.7021 117.705 17.9534C118.123 18.1808 118.512 18.4571 118.865 18.7766L117.992 19.8244C117.338 19.2552 116.583 18.8151 115.765 18.5272C114.859 18.2144 113.905 18.0624 112.947 18.0781C112.263 18.0339 111.582 18.1923 110.988 18.5334C110.798 18.6516 110.642 18.8159 110.533 19.0112C110.423 19.2064 110.366 19.4261 110.365 19.6498C110.361 19.8642 110.403 20.0769 110.489 20.2734C110.585 20.472 110.726 20.6451 110.901 20.7786C111.13 20.9599 111.384 21.107 111.656 21.2151C111.967 21.3523 112.36 21.4895 112.822 21.6454L116.108 22.6869C117.025 22.9447 117.875 23.3955 118.603 24.0091C118.895 24.2699 119.126 24.5916 119.28 24.9515C119.434 25.3114 119.508 25.7008 119.495 26.0921Z" fill="#101E29"/>
<path d="M128.712 24.4392H120.711V22.8738H128.712V24.4392Z" fill="#101E29"/>
<path d="M133.153 18.4336V22.4374H139.508V23.7409H133.153V28.0066H141.26V29.3101H130.658V17.1302H141.26V18.4336H133.153Z" fill="#101E29"/>
<path d="M149.898 23.0673L155.081 29.3038H152.124L148.414 24.851L144.728 29.3038H141.766L146.936 23.0673L142.028 17.1302H144.99L148.414 21.2899L151.863 17.1302H154.819L149.898 23.0673Z" fill="#101E29"/>
<path d="M162.57 17.1301C163.361 17.119 164.15 17.2155 164.915 17.4169C165.548 17.5791 166.143 17.863 166.668 18.2526C167.135 18.6057 167.512 19.0654 167.765 19.5935C168.03 20.157 168.162 20.7735 168.152 21.3958C168.163 22.0163 168.03 22.6308 167.765 23.1919C167.513 23.7211 167.137 24.1812 166.668 24.5328C166.145 24.925 165.549 25.2091 164.915 25.3685C164.15 25.5699 163.361 25.6664 162.57 25.6554H158.828V29.31H156.303V17.1301H162.57ZM158.828 18.4335V24.3519H162.57C162.97 24.3703 163.37 24.3074 163.745 24.167C164.12 24.0265 164.463 23.8115 164.752 23.5349C165.042 23.2583 165.272 22.9259 165.43 22.5577C165.587 22.1895 165.669 21.7932 165.669 21.3927C165.669 20.9923 165.587 20.596 165.43 20.2278C165.272 19.8596 165.042 19.5271 164.752 19.2505C164.463 18.9739 164.12 18.7589 163.745 18.6185C163.37 18.4781 162.97 18.4151 162.57 18.4335H158.828Z" fill="#101E29"/>
<path d="M172.574 18.4336V22.4374H178.904V23.7409H172.574V28.0066H180.682V29.3101H170.08V17.1302H180.682V18.4336H172.574Z" fill="#101E29"/>
<path d="M188.67 17.1303C189.459 17.1198 190.246 17.2163 191.009 17.4171C191.64 17.579 192.233 17.8629 192.755 18.2528C193.228 18.6001 193.611 19.0556 193.872 19.5812C194.136 20.1447 194.268 20.7612 194.258 21.3836C194.284 22.22 194.039 23.0425 193.56 23.7285C193.052 24.4043 192.356 24.9143 191.558 25.1941L194.433 29.2977H191.558L189.001 25.6431H184.947V29.2977H182.453V17.1303H188.67ZM184.929 18.4337V24.3521H188.67C189.445 24.4013 190.208 24.1411 190.791 23.6287C191.272 22.9827 191.532 22.1985 191.532 21.3929C191.532 20.5873 191.272 19.8031 190.791 19.1571C190.208 18.6447 189.445 18.3845 188.67 18.4337H184.929Z" fill="#101E29"/>
<path d="M207.205 18.4336H202.503V29.3101H200.008V18.4336H195.306V17.1302H207.23L207.205 18.4336Z" fill="#101E29"/>
<path d="M223.108 23.9965C223.111 24.1559 223.077 24.3138 223.008 24.458C222.932 24.6106 222.815 24.7398 222.672 24.8322C222.481 24.9545 222.27 25.0411 222.048 25.0879C221.749 25.1503 221.443 25.1795 221.137 25.1752C220.929 25.1781 220.72 25.1635 220.514 25.1315C220.328 25.1018 220.144 25.058 219.965 25.0006C219.798 24.9424 219.635 24.8715 219.479 24.7885C219.341 24.7124 219.214 24.6203 219.098 24.5141L219.385 24.1711C219.611 24.3624 219.871 24.5085 220.152 24.6014C220.463 24.6991 220.787 24.7475 221.112 24.7449C221.397 24.7664 221.681 24.7104 221.936 24.5827C222.012 24.5368 222.074 24.4716 222.117 24.3939C222.159 24.3162 222.181 24.2286 222.179 24.1399C222.178 24.0678 222.16 23.9969 222.126 23.933C222.092 23.869 222.044 23.8139 221.986 23.772C221.795 23.6403 221.585 23.5413 221.362 23.4789L220.264 23.1359C219.963 23.0499 219.684 22.8987 219.447 22.6931C219.357 22.605 219.286 22.499 219.239 22.382C219.191 22.265 219.169 22.1394 219.173 22.0133C219.175 21.8703 219.209 21.7297 219.273 21.6017C219.349 21.4612 219.458 21.3413 219.591 21.2524C219.753 21.135 219.938 21.0522 220.133 21.0092C220.392 20.9445 220.659 20.9151 220.925 20.9219C221.115 20.9207 221.305 20.9353 221.493 20.9655C221.673 20.9959 221.85 21.0397 222.023 21.0965C222.189 21.152 222.35 21.223 222.503 21.3086C222.641 21.3831 222.769 21.4754 222.884 21.583L222.597 21.926C222.38 21.739 222.13 21.5932 221.861 21.4957C221.559 21.3967 221.243 21.3482 220.925 21.3522C220.707 21.3404 220.491 21.3924 220.302 21.5019C220.237 21.5393 220.183 21.5929 220.144 21.6573C220.106 21.7217 220.085 21.7949 220.083 21.8698C220.08 21.941 220.095 22.0119 220.127 22.0756C220.155 22.1423 220.2 22.2004 220.258 22.244C220.333 22.3044 220.417 22.3528 220.508 22.3875L220.894 22.5309L221.986 22.8739C222.287 22.9611 222.567 23.1097 222.809 23.3105C222.905 23.3968 222.981 23.5027 223.033 23.6211C223.084 23.7394 223.11 23.8674 223.108 23.9965Z" fill="#101E29"/>
<path d="M227.281 21.4522H225.728V25.0506H224.899V21.4522H223.339V21.0218H227.281V21.4522Z" fill="#101E29"/>
<path d="M229.931 20.922C230.25 20.9175 230.568 20.9638 230.873 21.0592C231.139 21.1386 231.383 21.276 231.589 21.4615C231.795 21.647 231.957 21.876 232.064 22.1319C232.288 22.7225 232.288 23.3748 232.064 23.9654C231.959 24.2195 231.799 24.4473 231.596 24.6327C231.386 24.8168 231.14 24.9549 230.873 25.0381C230.262 25.2172 229.613 25.2172 229.002 25.0381C228.735 24.9549 228.489 24.8168 228.279 24.6327C228.074 24.4485 227.914 24.2203 227.811 23.9654C227.595 23.3733 227.595 22.724 227.811 22.1319C227.914 21.8769 228.074 21.6488 228.279 21.4646C228.487 21.2782 228.734 21.1398 229.002 21.0592C229.303 20.9653 229.616 20.919 229.931 20.922ZM229.931 21.3211C229.743 21.3201 229.557 21.3562 229.382 21.4271C229.211 21.4949 229.057 21.6016 228.933 21.739C228.8 21.8988 228.698 22.0831 228.634 22.2815C228.554 22.5292 228.516 22.7885 228.522 23.0486C228.517 23.3088 228.555 23.5679 228.634 23.8157C228.696 24.013 228.798 24.1955 228.933 24.3521C229.055 24.4931 229.209 24.6023 229.382 24.6701C229.557 24.7411 229.743 24.7771 229.931 24.7761C230.119 24.7759 230.306 24.7399 230.48 24.6701C230.651 24.6006 230.802 24.4916 230.923 24.3521C231.062 24.1975 231.167 24.0145 231.228 23.8157C231.308 23.5679 231.346 23.3088 231.341 23.0486C231.346 22.7885 231.308 22.5292 231.228 22.2815C231.165 22.0816 231.061 21.8968 230.923 21.739C230.8 21.6039 230.649 21.4974 230.48 21.4271C230.306 21.3574 230.119 21.3214 229.931 21.3211Z" fill="#101E29"/>
<path d="M234.995 21.0342C235.256 21.0311 235.516 21.0625 235.768 21.1278C235.977 21.1834 236.173 21.2764 236.348 21.4022C236.5 21.5234 236.624 21.6767 236.71 21.8512C236.8 22.0465 236.842 22.2601 236.835 22.4749C236.844 22.7528 236.763 23.0264 236.604 23.2544C236.433 23.4732 236.204 23.6396 235.943 23.7346L236.891 25.0942H235.943L235.095 23.8843H233.785V25.0942H232.956V21.0654L234.995 21.0342ZM233.748 21.4645V23.4228H234.995C235.126 23.4388 235.259 23.4242 235.383 23.3802C235.508 23.3362 235.621 23.2639 235.712 23.169C235.804 23.0741 235.873 22.9593 235.913 22.8334C235.953 22.7076 235.963 22.5742 235.943 22.4437C235.954 22.3095 235.937 22.1745 235.894 22.0469C235.852 21.9193 235.783 21.8018 235.693 21.7015C235.5 21.5345 235.25 21.4495 234.995 21.4645H233.748Z" fill="#101E29"/>
<path d="M238.357 21.4521V22.7742H240.458V23.2108H238.357V24.6203H241.032V25.0506H237.527V21.0218H241.032V21.4521H238.357Z" fill="#101E29"/>
</svg>
