<svg width="198" height="36" viewBox="0 0 198 36" fill="none" xmlns="http://www.w3.org/2000/svg">
<path fill-rule="evenodd" clip-rule="evenodd" d="M1.12323e-06 5.94305H0.60245C1.13356 5.94265 1.65955 6.04655 2.15035 6.2488C2.64115 6.45105 3.08714 6.74769 3.46283 7.12177C3.83852 7.49585 4.13655 7.94003 4.33989 8.42893C4.54323 8.91783 4.64789 9.44186 4.64789 9.97108V30.5225H4.04544C3.51408 30.5229 2.98785 30.4189 2.49685 30.2164C2.00586 30.014 1.55973 29.7171 1.184 29.3427C0.808268 28.9683 0.510299 28.5238 0.307136 28.0345C0.103974 27.5453 -0.000394976 27.0209 1.12323e-06 26.4914V5.94305Z" fill="#101E29"/>
<path fill-rule="evenodd" clip-rule="evenodd" d="M20.8034 18.9577L14.2939 12.4714C13.7046 11.8359 13.3738 11.0045 13.3662 10.1392L13.3451 8.53939V7.82013e-05H12.7426C11.6705 7.82013e-05 10.6423 0.424459 9.8842 1.17986C9.12609 1.93527 8.7002 2.95981 8.7002 4.02811V10.5774V11.3308C8.72079 11.9826 8.85641 12.6258 9.10082 13.2308C9.36319 13.8777 9.74883 14.4679 10.2364 14.9686L15.5832 20.4494C16.278 21.0595 16.7978 21.8426 17.0893 22.7186C17.2811 23.4149 17.4012 24.129 17.4478 24.8496C17.502 25.66 17.4477 26.0292 17.5441 26.0502C17.8755 26.1313 19.0262 22.8596 19.0262 22.8596L18.1074 21.659L20.8034 18.9577Z" fill="#101E29"/>
<path d="M13.0033 23.6158C12.7247 22.9775 12.3408 22.3901 11.8677 21.8779C11.5827 21.54 11.2737 21.2231 10.9429 20.9295L5.8733 15.7789C5.14008 14.8014 4.71351 13.6297 4.64732 12.4112V11.7058V10.5052V10.0099C4.64732 8.94165 4.22142 7.9171 3.46332 7.1617C2.70522 6.4063 1.67701 5.98191 0.60489 5.98191H0.00244141V13.0535V14.4192C0.0379282 15.7804 0.585127 17.0787 1.53567 18.057L6.87638 23.5378C6.90349 23.5648 7.01494 23.6578 7.15953 23.7899C7.38787 23.9965 7.6041 24.216 7.80716 24.4472C8.1203 24.7861 8.36749 25.18 8.53613 25.6088C8.67169 25.9599 8.73619 26.3343 8.7259 26.7104L8.74698 28.3072V36.0001H9.34943C10.4216 36.0001 11.4498 35.5757 12.2079 34.8203C12.966 34.0649 13.3919 33.0403 13.3919 31.972V26.2692C13.3919 26.017 13.3919 25.7649 13.3919 25.5158C13.3767 24.8645 13.2451 24.2211 13.0033 23.6158Z" fill="#101E29"/>
<path fill-rule="evenodd" clip-rule="evenodd" d="M17.4255 5.94305H18.028C18.5591 5.94265 19.0851 6.04655 19.5759 6.2488C20.0667 6.45105 20.5127 6.74769 20.8884 7.12177C21.2641 7.49585 21.5621 7.94003 21.7654 8.42893C21.9688 8.91783 22.0734 9.44186 22.0734 9.97108V30.5225H21.471C20.9399 30.5225 20.414 30.4182 19.9233 30.2156C19.4327 30.013 18.9869 29.716 18.6115 29.3416C18.2361 28.9673 17.9384 28.5229 17.7354 28.0338C17.5324 27.5448 17.4282 27.0207 17.4286 26.4914V5.94305H17.4255Z" fill="#101E29"/>
<path fill-rule="evenodd" clip-rule="evenodd" d="M196.328 13.1892C195.375 12.4558 194.138 12.4558 192.836 12.4558H174.904C173.592 12.4558 172.355 12.4558 171.412 13.1892C170.374 13.9875 169.915 15.5191 169.915 18.0038C169.915 20.4884 170.414 21.9951 171.412 22.8184C172.365 23.5518 173.602 23.5518 174.904 23.5518H192.826C194.138 23.5518 195.375 23.5518 196.318 22.8184C197.356 22.0151 197.815 20.4884 197.815 18.0038C197.815 15.5191 197.366 13.9875 196.328 13.1892ZM195.714 22.0201C195.031 22.5489 194.008 22.5489 192.826 22.5489H174.904C173.722 22.5489 172.699 22.5489 172.016 22.0201C171.257 21.4363 170.888 20.1192 170.888 18.0287C170.888 15.9382 171.257 14.5961 172.016 14.0074C172.699 13.4835 173.722 13.4835 174.904 13.4835H192.826C194.008 13.4835 195.031 13.4835 195.714 14.0074C196.398 14.5313 196.842 15.9083 196.842 18.0287C196.842 20.1491 196.473 21.4363 195.714 22.0201Z" fill="#101E29"/>
<path d="M43.1045 13.304V23.0479H41.1088V18.8021H35.3812V23.0479H33.3606V13.304H35.3812V17.7594H41.0889V13.304H43.1045Z" fill="#101E29"/>
<path d="M50.3239 13.0246C51.0969 13.0142 51.8666 13.127 52.604 13.3589C53.2506 13.5664 53.847 13.9062 54.3552 14.3567C54.8498 14.8044 55.2383 15.3566 55.4928 15.9732C56.0314 17.3992 56.0314 18.9727 55.4928 20.3986C55.2412 21.0169 54.8522 21.5697 54.3552 22.0151C53.8496 22.4692 53.2524 22.8095 52.604 23.013C51.8666 23.2449 51.0969 23.3577 50.3239 23.3473C49.551 23.3574 48.7814 23.2445 48.0439 23.013C47.392 22.8106 46.7913 22.4703 46.2827 22.0151C45.7872 21.5705 45.4012 21.0172 45.1551 20.3986C44.6228 18.9715 44.6228 17.4003 45.1551 15.9732C45.4038 15.356 45.7893 14.8032 46.2827 14.3567C46.7938 13.905 47.3937 13.5651 48.0439 13.3589C48.7814 13.1273 49.551 13.0145 50.3239 13.0246ZM50.3239 14.0224C49.8695 14.0185 49.4187 14.1032 48.9968 14.2719C48.582 14.4371 48.2126 14.6988 47.9191 15.0352C47.5911 15.4167 47.3419 15.8592 47.1857 16.3374C46.8266 17.5504 46.8266 18.8414 47.1857 20.0544C47.3419 20.5326 47.5911 20.9752 47.9191 21.3566C48.2137 21.693 48.5827 21.9561 48.9968 22.1249C49.852 22.4576 50.8009 22.4576 51.656 22.1249C52.0702 21.9561 52.4392 21.693 52.7337 21.3566C53.0617 20.9752 53.311 20.5326 53.4671 20.0544C53.8263 18.8414 53.8263 17.5504 53.4671 16.3374C53.311 15.8592 53.0617 15.4167 52.7337 15.0352C52.4465 14.6995 52.0841 14.4363 51.676 14.2669C51.2473 14.0899 50.7877 14 50.3239 14.0025V14.0224Z" fill="#101E29"/>
<path d="M66.2894 14.3467H62.5275V23.0479H60.5318V14.3467H56.75V13.304H66.2894V14.3467Z" fill="#101E29"/>
<path d="M69.4176 14.3467V17.5498H74.5016V18.5926H69.4176V22.0052H75.9035V23.0479H67.4219V13.304H75.9035V14.3467H69.4176Z" fill="#101E29"/>
<path d="M85.2933 22.0052V23.0479H77.2656V13.304H79.2613V22.0052H85.2933Z" fill="#101E29"/>
<path d="M95.596 20.4735C95.5984 20.8622 95.5114 21.2463 95.3416 21.5961C95.157 21.965 94.876 22.277 94.5283 22.4991C94.0801 22.7854 93.5855 22.9914 93.0665 23.1078C92.3425 23.2665 91.6024 23.3402 90.8613 23.3273C90.3785 23.3289 89.8964 23.2922 89.4194 23.2176C88.9659 23.147 88.5187 23.0403 88.0823 22.8982C87.6779 22.7702 87.2869 22.6031 86.9148 22.3993C86.5791 22.2175 86.2674 21.9946 85.9868 21.7358L86.6853 20.9026C87.2289 21.3656 87.8577 21.7181 88.5363 21.9403C89.2871 22.1831 90.0722 22.3027 90.8613 22.2945C91.5496 22.3507 92.2401 22.2161 92.857 21.9054C93.0398 21.7935 93.1899 21.6355 93.2924 21.4472C93.3948 21.2589 93.446 21.047 93.4407 20.8327C93.4399 20.6582 93.398 20.4864 93.3182 20.3312C93.2384 20.176 93.1231 20.0418 92.9817 19.9396C92.5033 19.6199 91.9758 19.3806 91.4201 19.2312L88.7758 18.398C88.0371 18.2007 87.3541 17.8353 86.7801 17.3303C86.5599 17.1167 86.3867 16.8595 86.2716 16.5751C86.1565 16.2907 86.102 15.9855 86.1115 15.6789C86.111 15.3314 86.1949 14.9889 86.356 14.681C86.5348 14.34 86.7954 14.0486 87.1144 13.8329C87.5144 13.5589 87.9606 13.3595 88.4315 13.2441C89.0618 13.0913 89.7089 13.0192 90.3574 13.0296C90.8119 13.0312 91.2656 13.0679 91.7144 13.1394C92.1548 13.2127 92.5886 13.3211 93.0116 13.4637C93.4102 13.5945 93.7959 13.7615 94.1641 13.9626C94.4985 14.1444 94.8101 14.3655 95.0921 14.6212L94.3936 15.4593C93.8708 15.004 93.2664 14.6519 92.6125 14.4216C91.8875 14.1713 91.1243 14.0498 90.3574 14.0624C89.8107 14.027 89.2657 14.1537 88.7907 14.4266C88.6388 14.5211 88.5134 14.6526 88.4261 14.8088C88.3389 14.965 88.2927 15.1407 88.2918 15.3196C88.2888 15.4912 88.3228 15.6614 88.3916 15.8186C88.4678 15.9774 88.5807 16.116 88.7209 16.2227C88.9041 16.3678 89.1075 16.4854 89.3246 16.5719C89.5741 16.6817 89.8884 16.7915 90.2576 16.9162L92.8869 17.7494C93.6199 17.9556 94.3004 18.3162 94.8826 18.8071C95.1162 19.0157 95.3011 19.2731 95.4244 19.561C95.5477 19.849 95.6063 20.1604 95.596 20.4735Z" fill="#101E29"/>
<path d="M102.97 19.1512H96.5688V17.8989H102.97V19.1512Z" fill="#101E29"/>
<path d="M106.522 14.3467V17.5498H111.606V18.5926H106.522V22.0052H113.008V23.0479H104.527V13.304H113.008V14.3467H106.522Z" fill="#101E29"/>
<path d="M119.919 18.0537L124.065 23.0429H121.7L118.731 19.4806L115.782 23.0429H113.413L117.549 18.0537L113.622 13.304H115.992L118.731 16.6318L121.49 13.304H123.855L119.919 18.0537Z" fill="#101E29"/>
<path d="M130.056 13.3039C130.689 13.2951 131.32 13.3723 131.932 13.5334C132.439 13.6632 132.915 13.8902 133.334 14.202C133.708 14.4844 134.009 14.8522 134.212 15.2746C134.424 15.7255 134.53 16.2186 134.522 16.7165C134.53 17.2129 134.424 17.7045 134.212 18.1534C134.011 18.5767 133.709 18.9448 133.334 19.2261C132.916 19.5398 132.439 19.7671 131.932 19.8946C131.32 20.0558 130.689 20.133 130.056 20.1242H127.063V23.0478H125.042V13.3039H130.056ZM127.063 14.3467V19.0814H130.056C130.376 19.0961 130.696 19.0458 130.996 18.9334C131.296 18.8211 131.57 18.6491 131.802 18.4278C132.034 18.2065 132.218 17.9406 132.344 17.646C132.47 17.3514 132.535 17.0344 132.535 16.714C132.535 16.3937 132.47 16.0766 132.344 15.7821C132.218 15.4875 132.034 15.2216 131.802 15.0003C131.57 14.779 131.296 14.607 130.996 14.4946C130.696 14.3823 130.376 14.332 130.056 14.3467H127.063Z" fill="#101E29"/>
<path d="M138.059 14.3467V17.5498H143.123V18.5926H138.059V22.0052H144.545V23.0479H136.064V13.304H144.545V14.3467H138.059Z" fill="#101E29"/>
<path d="M150.936 13.304C151.568 13.2957 152.197 13.3728 152.807 13.5335C153.312 13.663 153.787 13.8902 154.204 14.2021C154.583 14.4799 154.889 14.8443 155.097 15.2648C155.309 15.7156 155.415 16.2088 155.407 16.7067C155.427 17.3758 155.231 18.0338 154.848 18.5826C154.442 19.1233 153.884 19.5313 153.246 19.7551L155.546 23.038H153.246L151.201 20.1143H147.958V23.038H145.962V13.304H150.936ZM147.943 14.3468V19.0815H150.936C151.556 19.1209 152.166 18.9127 152.633 18.5028C153.018 17.986 153.226 17.3587 153.226 16.7142C153.226 16.0696 153.018 15.4423 152.633 14.9255C152.166 14.5156 151.556 14.3075 150.936 14.3468H147.943Z" fill="#101E29"/>
<path d="M165.765 14.3467H162.003V23.0479H160.007V14.3467H156.245V13.304H165.784L165.765 14.3467Z" fill="#101E29"/>
<path d="M178.487 18.7971C178.489 18.9246 178.461 19.0509 178.407 19.1663C178.345 19.2884 178.252 19.3918 178.137 19.4656C177.985 19.5635 177.816 19.6328 177.638 19.6702C177.399 19.7201 177.155 19.7435 176.91 19.74C176.743 19.7423 176.576 19.7306 176.411 19.7051C176.262 19.6813 176.116 19.6463 175.972 19.6003C175.838 19.5538 175.708 19.4971 175.583 19.4307C175.473 19.3698 175.371 19.2961 175.279 19.2112L175.508 18.9368C175.689 19.0898 175.897 19.2067 176.122 19.281C176.37 19.3592 176.63 19.3979 176.89 19.3958C177.117 19.413 177.345 19.3682 177.549 19.2661C177.609 19.2293 177.659 19.1772 177.693 19.115C177.728 19.0528 177.745 18.9827 177.743 18.9118C177.742 18.8541 177.728 18.7974 177.701 18.7462C177.674 18.6951 177.636 18.651 177.589 18.6175C177.436 18.5121 177.268 18.4329 177.09 18.383L176.212 18.1086C175.97 18.0398 175.747 17.9189 175.558 17.7543C175.486 17.6838 175.429 17.5991 175.391 17.5055C175.353 17.4119 175.335 17.3114 175.338 17.2105C175.34 17.0961 175.367 16.9836 175.418 16.8812C175.479 16.7688 175.566 16.6729 175.673 16.6018C175.803 16.5079 175.95 16.4416 176.107 16.4072C176.314 16.3555 176.527 16.332 176.74 16.3374C176.892 16.3364 177.044 16.3481 177.194 16.3723C177.338 16.3966 177.48 16.4316 177.619 16.4771C177.752 16.5215 177.88 16.5783 178.003 16.6467C178.113 16.7064 178.216 16.7802 178.307 16.8662L178.078 17.1406C177.904 16.9911 177.704 16.8744 177.489 16.7964C177.247 16.7173 176.994 16.6785 176.74 16.6816C176.566 16.6722 176.393 16.7138 176.241 16.8014C176.19 16.8313 176.146 16.8742 176.116 16.9257C176.085 16.9773 176.068 17.0358 176.067 17.0957C176.064 17.1527 176.076 17.2094 176.102 17.2604C176.124 17.3137 176.16 17.3602 176.207 17.3951C176.267 17.4434 176.334 17.4821 176.406 17.5099L176.715 17.6246L177.589 17.899C177.83 17.9688 178.054 18.0877 178.247 18.2483C178.324 18.3173 178.385 18.4021 178.426 18.4967C178.468 18.5914 178.488 18.6938 178.487 18.7971Z" fill="#101E29"/>
<path d="M181.825 16.7615H180.582V19.6403H179.919V16.7615H178.672V16.4173H181.825V16.7615Z" fill="#101E29"/>
<path d="M183.945 16.3374C184.2 16.3339 184.455 16.3709 184.698 16.4472C184.911 16.5107 185.107 16.6206 185.271 16.7691C185.436 16.9175 185.566 17.1006 185.651 17.3054C185.831 17.7778 185.831 18.2997 185.651 18.7722C185.567 18.9755 185.44 19.1577 185.277 19.306C185.109 19.4533 184.912 19.5638 184.698 19.6303C184.21 19.7736 183.69 19.7736 183.202 19.6303C182.988 19.5638 182.791 19.4533 182.623 19.306C182.459 19.1586 182.332 18.9761 182.249 18.7722C182.076 18.2985 182.076 17.779 182.249 17.3054C182.332 17.1014 182.459 16.9189 182.623 16.7715C182.79 16.6224 182.987 16.5117 183.202 16.4472C183.442 16.3721 183.693 16.3351 183.945 16.3374ZM183.945 16.6568C183.795 16.656 183.645 16.6848 183.506 16.7416C183.369 16.7958 183.246 16.8812 183.147 16.991C183.04 17.1189 182.958 17.2663 182.907 17.4251C182.843 17.6232 182.813 17.8306 182.817 18.0388C182.814 18.2469 182.844 18.4542 182.907 18.6524C182.957 18.8103 183.039 18.9563 183.147 19.0815C183.244 19.1944 183.367 19.2817 183.506 19.336C183.645 19.3928 183.795 19.4216 183.945 19.4208C184.095 19.4206 184.244 19.3918 184.384 19.336C184.521 19.2803 184.642 19.1931 184.738 19.0815C184.85 18.9578 184.933 18.8114 184.983 18.6524C185.046 18.4542 185.077 18.2469 185.073 18.0388C185.077 17.8306 185.047 17.6232 184.983 17.4251C184.932 17.2651 184.849 17.1173 184.738 16.991C184.64 16.8829 184.519 16.7978 184.384 16.7416C184.244 16.6858 184.095 16.657 183.945 16.6568Z" fill="#101E29"/>
<path d="M187.996 16.4272C188.205 16.4247 188.413 16.4499 188.615 16.5021C188.781 16.5466 188.938 16.621 189.079 16.7216C189.2 16.8186 189.299 16.9412 189.368 17.0808C189.44 17.2371 189.474 17.4079 189.468 17.5797C189.475 17.8021 189.411 18.021 189.283 18.2034C189.146 18.3784 188.963 18.5115 188.754 18.5876L189.513 19.6752H188.754L188.076 18.7073H187.028V19.6752H186.365V16.4522L187.996 16.4272ZM186.998 16.7715V18.3381H187.996C188.101 18.3509 188.207 18.3392 188.307 18.304C188.406 18.2688 188.496 18.211 188.57 18.1351C188.643 18.0592 188.698 17.9673 188.73 17.8666C188.762 17.7659 188.771 17.6592 188.754 17.5548C188.763 17.4475 188.75 17.3395 188.716 17.2374C188.681 17.1353 188.627 17.0413 188.555 16.9611C188.4 16.8274 188.2 16.7594 187.996 16.7715H186.998Z" fill="#101E29"/>
<path d="M190.686 16.7615V17.8193H192.367V18.1685H190.686V19.2961H192.826V19.6403H190.022V16.4173H192.826V16.7615H190.686Z" fill="#101E29"/>
</svg>
